<svg width="200" height="160" viewBox="0 0 200 160" fill="none" xmlns="http://www.w3.org/2000/svg">
<g id="Factory-Top">
<rect id="PinPlacement" x="48.5" y="77.5" width="24" height="24" stroke="black"/>
<g id="Ground">
<rect id="Fill" x="40" y="40" width="120" height="80" fill="#583924"/>
<rect id="Entrance" x="127" y="47" width="7" height="26" transform="rotate(-90 127 47)" fill="#634934"/>
<rect id="Parking" x="44" y="44" width="112" height="72" rx="1" fill="#634934"/>
</g>
<g id="Entry">
<rect id="Rectangle 9" x="147" y="40" width="36" height="2" transform="rotate(90 147 40)" fill="url(#paint0_linear_99_303)"/>
<rect id="Rectangle 10" x="135" y="40" width="36" height="2" transform="rotate(90 135 40)" fill="url(#paint1_linear_99_303)"/>
<path id="Subtract" d="M142.223 46.1562L140 43.9336L137.777 46.1562L136.811 45.1895L140 42L143.189 45.1895L142.223 46.1562Z" fill="#4CFFF9"/>
<path id="Subtract_2" d="M142.223 51.1562L140 48.9336L137.777 51.1562L136.811 50.1895L140 47L143.189 50.1895L142.223 51.1562Z" fill="#4CFFF9"/>
<path id="Subtract_3" d="M137.777 54L140 56.2227L142.223 54L143.189 54.9668L140 58.1562L136.811 54.9668L137.777 54Z" fill="#4CFFF9"/>
<path id="Subtract_4" d="M137.777 59L140 61.2227L142.223 59L143.189 59.9668L140 63.1562L136.811 59.9668L137.777 59Z" fill="#4CFFF9"/>
</g>
<g id="Shadows">
<path id="Shadow" d="M165 45V125H160V136H64L53 125H45L40 120H48L44 116V73H140L160 93V40L165 45Z" fill="black" fill-opacity="0.1"/>
</g>
<g id="Building">
<rect id="RoofMain" x="44" y="73" width="76" height="43" rx="4" fill="#FF0000"/>
<path id="RoofShadow" d="M82 84V111H55L47 103V76H74L82 84Z" fill="#CC0000"/>
<rect id="RoofMain_2" x="47" y="76" width="27" height="27" fill="#FF0000"/>
<rect id="RoofMain_3" x="51" y="67" width="29" height="6" fill="#FF0000"/>
<rect id="RoofMain_4" x="127" y="88" width="15" height="28" rx="1" fill="#FF0000"/>
<path id="RoofShadow_2" d="M100.293 93.2929C100.105 93.1054 99.851 93 99.5858 93H74V103H102.757C105.43 103 106.769 99.7686 104.879 97.8787L100.293 93.2929Z" fill="#CC0000"/>
<path id="RoofShadow_3" d="M100.293 83.2929C100.105 83.1054 99.851 83 99.5858 83H74V93H102.757C105.43 93 106.769 89.7686 104.879 87.8787L100.293 83.2929Z" fill="#CC0000"/>
<path id="RoofMain_5" d="M100 84C100 81.7909 98.2091 80 96 80H74V88H96C98.2091 88 100 86.2091 100 84Z" fill="#FF0000"/>
<path id="RoofMain_6" d="M100 94C100 91.7909 98.2091 90 96 90H74V98H96C98.2091 98 100 96.2091 100 94Z" fill="#FF0000"/>
<path id="Gradient" d="M100 94C100 91.7909 98.2091 90 96 90H74V98H96C98.2091 98 100 96.2091 100 94Z" fill="url(#paint2_linear_99_303)"/>
<path id="Gradient_2" d="M100 84C100 81.7909 98.2091 80 96 80H74V88H96C98.2091 88 100 86.2091 100 84Z" fill="url(#paint3_linear_99_303)"/>
<rect id="RoofShadow_4" x="120" y="94" width="7" height="3" fill="#CC0000"/>
<rect id="RoofShadow_5" x="120" y="100" width="7" height="3" fill="#CC0000"/>
<rect id="RoofShadow_6" x="120" y="106" width="7" height="3" fill="#CC0000"/>
<g id="RoofDarkest">
<path d="M49 106H48V103H49V106Z" fill="#A00000"/>
<path d="M52 106H51V103H52V106Z" fill="#A00000"/>
<path d="M55 106H54V103H55V106Z" fill="#A00000"/>
<path d="M58 106H57V103H58V106Z" fill="#A00000"/>
<path d="M61 106H60V103H61V106Z" fill="#A00000"/>
<path d="M64 106H63V103H64V106Z" fill="#A00000"/>
<path d="M67 106H66V103H67V106Z" fill="#A00000"/>
<path d="M70 106H69V103H70V106Z" fill="#A00000"/>
<path d="M73 106H72V103H73V106Z" fill="#A00000"/>
</g>
</g>
<rect id="CarsParking" x="44.5" y="44.5" width="87" height="28" stroke="black"/>
<g id="Pins">
<rect id="Pin_1" x="130" y="111" width="9" height="2" fill="#A00000"/>
<rect id="Pin_2" x="130" y="107" width="9" height="2" fill="#A00000"/>
<rect id="Pin_3" x="130" y="103" width="9" height="2" fill="#A00000"/>
<rect id="Pin_4" x="130" y="99" width="9" height="2" fill="#A00000"/>
<rect id="Pin_5" x="130" y="95" width="9" height="2" fill="#A00000"/>
<rect id="Pin_6" x="130" y="91" width="9" height="2" fill="#A00000"/>
</g>
</g>
<defs>
<linearGradient id="paint0_linear_99_303" x1="147" y1="41" x2="183" y2="41" gradientUnits="userSpaceOnUse">
<stop stop-color="#4CFFF9"/>
<stop offset="0.567308" stop-color="#4CFFF9" stop-opacity="0"/>
</linearGradient>
<linearGradient id="paint1_linear_99_303" x1="135" y1="41" x2="171" y2="41" gradientUnits="userSpaceOnUse">
<stop stop-color="#4CFFF9"/>
<stop offset="0.567308" stop-color="#4CFFF9" stop-opacity="0"/>
</linearGradient>
<linearGradient id="paint2_linear_99_303" x1="87" y1="90" x2="87" y2="98" gradientUnits="userSpaceOnUse">
<stop stop-color="white" stop-opacity="0"/>
<stop offset="0.158654" stop-color="white" stop-opacity="0.55"/>
<stop offset="0.75" stop-color="white" stop-opacity="0"/>
</linearGradient>
<linearGradient id="paint3_linear_99_303" x1="87" y1="80" x2="87" y2="88" gradientUnits="userSpaceOnUse">
<stop stop-color="white" stop-opacity="0"/>
<stop offset="0.158654" stop-color="white" stop-opacity="0.55"/>
<stop offset="0.75" stop-color="white" stop-opacity="0"/>
</linearGradient>
</defs>
</svg>
