<svg width="50" height="50" viewBox="0 0 50 50" fill="none" xmlns="http://www.w3.org/2000/svg">
<g id="Icon-Trafficlight">
<rect id="IconBackground" width="50" height="50" fill="#442059"/>
<path id="Line 1" d="M9.29289 24.2929C8.90237 24.6834 8.90237 25.3166 9.29289 25.7071L15.6569 32.0711C16.0474 32.4616 16.6805 32.4616 17.0711 32.0711C17.4616 31.6805 17.4616 31.0474 17.0711 30.6569L11.4142 25L17.0711 19.3431C17.4616 18.9526 17.4616 18.3195 17.0711 17.9289C16.6805 17.5384 16.0474 17.5384 15.6569 17.9289L9.29289 24.2929ZM41.7071 25.7071C42.0976 25.3166 42.0976 24.6834 41.7071 24.2929L35.3431 17.9289C34.9526 17.5384 34.3195 17.5384 33.9289 17.9289C33.5384 18.3195 33.5384 18.9526 33.9289 19.3431L39.5858 25L33.9289 30.6569C33.5384 31.0474 33.5384 31.6805 33.9289 32.0711C34.3195 32.4616 34.9526 32.4616 35.3431 32.0711L41.7071 25.7071ZM10 25V26H41V25V24H10V25Z" fill="#4CFFF9"/>
<path id="Line 2" d="M24.7879 41.2121C25.1784 41.6026 25.8116 41.6026 26.2021 41.2121L32.5661 34.8482C32.9566 34.4576 32.9566 33.8245 32.5661 33.4339C32.1755 33.0434 31.5424 33.0434 31.1518 33.4339L25.495 39.0908L19.8381 33.4339C19.4476 33.0434 18.8145 33.0434 18.4239 33.4339C18.0334 33.8245 18.0334 34.4576 18.4239 34.8482L24.7879 41.2121ZM26.2021 8.7979C25.8116 8.40738 25.1784 8.40738 24.7879 8.7979L18.4239 15.1619C18.0334 15.5524 18.0334 16.1855 18.4239 16.5761C18.8145 16.9666 19.4476 16.9666 19.8381 16.5761L25.495 10.9192L31.1518 16.5761C31.5424 16.9666 32.1755 16.9666 32.5661 16.5761C32.9566 16.1855 32.9566 15.5524 32.5661 15.1619L26.2021 8.7979ZM25.495 40.505L26.495 40.505L26.495 9.505L25.495 9.505L24.495 9.505L24.495 40.505L25.495 40.505Z" fill="#4CFFF9" fill-opacity="0.2"/>
</g>
</svg>
