<svg width="160" height="160" viewBox="0 0 160 160" fill="none" xmlns="http://www.w3.org/2000/svg">
<g id="Storage-Right">
<g id="Ground">
<rect id="Fill" x="40" y="40" width="80" height="80" fill="#555555"/>
</g>
<g id="Entry">
<rect id="Rectangle 9" x="120" y="107" width="36" height="2" transform="rotate(180 120 107)" fill="url(#paint0_linear_99_318)"/>
<rect id="Rectangle 10" x="120" y="95" width="36" height="2" transform="rotate(180 120 95)" fill="url(#paint1_linear_99_318)"/>
<path id="Subtract" d="M113.844 102.223L116.066 100L113.844 97.7773L114.811 96.8105L118 100L114.811 103.189L113.844 102.223Z" fill="#4CFFF9"/>
<path id="Subtract_2" d="M108.844 102.223L111.066 100L108.844 97.7773L109.811 96.8105L113 100L109.811 103.189L108.844 102.223Z" fill="#4CFFF9"/>
<path id="Subtract_3" d="M106 97.7773L103.777 100L106 102.223L105.033 103.189L101.844 100L105.033 96.8105L106 97.7773Z" fill="#4CFFF9"/>
<path id="Subtract_4" d="M101 97.7773L98.7773 100L101 102.223L100.033 103.189L96.8438 100L100.033 96.8105L101 97.7773Z" fill="#4CFFF9"/>
</g>
<g id="Shadows">
<path id="Shadow" d="M105 55V105H55L40 90V40H90L105 55Z" fill="black" fill-opacity="0.1"/>
</g>
<rect id="PinPlacement" x="44.5" y="44.5" width="41" height="41" stroke="black"/>
<g id="Building">
<rect id="RoofMain" x="40" y="40" width="50" height="50" fill="#FF0000"/>
<path id="RoofShadow" d="M86 47H47V86H44V44H86V47Z" fill="#CC0000"/>
</g>
</g>
<defs>
<linearGradient id="paint0_linear_99_318" x1="120" y1="108" x2="156" y2="108" gradientUnits="userSpaceOnUse">
<stop stop-color="#4CFFF9"/>
<stop offset="0.567308" stop-color="#4CFFF9" stop-opacity="0"/>
</linearGradient>
<linearGradient id="paint1_linear_99_318" x1="120" y1="96" x2="156" y2="96" gradientUnits="userSpaceOnUse">
<stop stop-color="#4CFFF9"/>
<stop offset="0.567308" stop-color="#4CFFF9" stop-opacity="0"/>
</linearGradient>
</defs>
</svg>
